PathFileType	4	(X/Y/Z)	pose_F01_0-91.trc
DataRate	CameraRate	NumFrames	NumMarkers	Units	OrigDataRate	OrigDataStartFrame	OrigNumFrames
30	30	10	21	m	30	39	91
Frame#	Time	CHip			RHip			RKnee			RAnkle			RBigToe			RSmallToe			RHeel			LHip			LKnee			LAnkle			LBigToe			LSmallToe			LHeel			Neck			Nose			RShoulder			RElbow			RWrist			LShoulder			LElbow			LWrist			
		X1	Y1	Z1	X2	Y2	Z2	X3	Y3	Z3	X4	Y4	Z4	X5	Y5	Z5	X6	Y6	Z6	X7	Y7	Z7	X8	Y8	Z8	X9	Y9	Z9	X10	Y10	Z10	X11	Y11	Z11	X12	Y12	Z12	X13	Y13	Z13	X14	Y14	Z14	X15	Y15	Z15	X16	Y16	Z16	X17	Y17	Z17	X18	Y18	Z18	X19	Y19	Z19	X20	Y20	Z20	X21	Y21	Z21	
39	1.3	-0.20801726589545652	1.835299257171748	-0.5626570382507581	-0.2242279005071865	1.8336545784112506	-0.4968876089591038																-0.1927686377036573	1.8349062280342925	-0.61739948030692	-0.194655288013792	1.7128819626195702	-0.611918181640019	-0.18804988465477335	1.5915877273105588	-0.5984061117406101	-0.19734290691489673	1.565530903307359	-0.6591779149967787	-0.18608754446640494	1.5723480563875776	-0.671277335908892	-0.18967188788739797	1.5843770541449196	-0.5705192119015026	-1.4825985734003926	1.8832690515829476	0.7378998550077254	-0.21995982934786176	2.0303044006809197	-0.6731924086853915	-1.6539364360430606	1.8842300257248605	1.0169325082248113	-0.24906381681538897	1.9013101167458069	-0.46002904852457416	-0.2807828725276317	1.853428717692468	-0.417944855624556	-1.2967500376393402	1.8808663573540736	0.4526315021719593	-0.15973311006891816	1.905194487499003	-0.728498567727498	-0.9128509885068747	1.7851012509810629	-0.07758148800264214
40	1.3333333333333333	-0.20682120972952772	1.8327298764722622	-0.5678182623505889	-0.22214427890087607	1.8336603066219697	-0.5079059162307399																-0.18949490758570767	1.8330449922811898	-0.6248060977127081	-0.19279430954744609	1.709166551774697	-0.6134055873231026	-0.1880870573419946	1.591480418035279	-0.5983814145204798	-0.19757423229649085	1.5645832021657826	-0.6584060468928972	-0.18382461412067833	1.571879151421737	-0.6734022176114369	-0.19062157243796776	1.5840365258747642	-0.5736681529892033	-1.4866436351177743	1.8818155308433093	0.7471478085357591	-0.21539680348462042	2.0359533384759843	-0.6781853023349476	-1.6529641028019593	1.8843686198733953	1.0160349411939016	-0.24505842459243604	1.899923655849506	-0.464269444621346	-0.27613137698920676	1.8548427511088181	-0.42351847818207367	-1.2988665183737174	1.881690464067954	0.45982558426724535	-0.15534790395218323	1.9038534657146604	-0.7331435658637453	-0.12397189471105667	1.864953732046203	-0.829211956532651
41	1.3666666666666667	-0.20450579863568705	1.8359746624733186	-0.5708084146665238	-0.22076179599258677	1.8368641140533424	-0.5141107452093305																-0.18501726951812403	1.8373487279203922	-0.6300689664220426	-0.19137366898321376	1.7112424936596358	-0.6109949325782111	-0.1859706500148974	1.5914194628249134	-0.6006037203252456	-0.19746890708488632	1.5666050878646767	-0.6589951930712238	-0.18399604006029757	1.572594500602711	-0.6734082021986085	-0.1901949218861723	1.5843705352902209	-0.5718939712994107	-0.20468039257733103	1.9799309877766573	-0.6196311583371843	-0.21307693658319013	2.04219263507945	-0.6812302480092154	-1.661521719298943	1.886973494094704	1.0322209675900722	-0.24142716019387042	1.908082198853478	-0.47037928768155524	-0.2714798814507818	1.8562567845251683	-0.42909210073959136	-1.3196880778190005	1.885892921983742	0.49948873900087826	-0.15642923919485655	1.9062608686831788	-0.7279094452076195	-0.12763250621398056	1.8746482646292797	-0.8453332933686423
42	1.4	-0.20414470367375193	1.838625115133499	-0.5711820904254513	-0.2185364943538677	1.8377608748157448	-0.5076022966451107																-0.18487173441765103	1.8385913343232727	-0.6303461518033935	-0.18912461142458542	1.7107822130853407	-0.6131253976552161	-0.18650877104145608	1.5916566243912103	-0.59968306084432	-0.19517928707585114	1.5639865332399412	-0.6604917419537958	-0.1836317653982986	1.5713793628474775	-0.6734215614263616	-0.18976827133437682	1.5847045447056778	-0.5701197896096181	-1.5309111716409032	1.8890005577086666	0.8265493512187884	-0.20779861608068217	2.045819878452799	-0.663500945906641	-1.6795102175715317	1.8876002780553716	1.0650614096348083	-0.23675560437433923	1.9180057751534463	-0.4662081437438406	-0.2699422089927703	1.8882812732163967	-0.43614024267373486	-1.3500156238742345	1.8905298668908095	0.5489059213732075	-0.1553400617087739	1.912393620663751	-0.7251737778148752	-0.12165323051810926	1.8897234232949933	-0.8486941571262762
43	1.4333333333333333	-0.20636170267194445	1.8438738532441046	-0.5691969561339046	-0.22090322915903035	1.8435820863684282	-0.50587812641289																-0.18816761380508637	1.8435765305503629	-0.6232297781284156	-0.19292476019462731	1.7135805145023952	-0.6050722147509606	-0.18800282310944258	1.59403232854622	-0.5985470122667602	-0.1973932304900353	1.5638600570496288	-0.6586019052362428	-0.1839438479316586	1.5726570940443803	-0.6733903067307184	-0.18931380079451798	1.584982711372618	-0.5709488791552152	-0.20239649307484534	1.9852429006022607	-0.5936595177060023	-0.21230111130947898	2.0485157799706455	-0.6507143791942405	-1.7208452008724067	1.8901594839282059	1.1370740982240555	-0.24136598388298625	1.9102328366145818	-0.46359515346750174	-0.2698438935425016	1.9277458811248254	-0.43743286534836034	-0.17679630155622691	1.9890536132830319	-0.6820788736745895	-0.1529784071970405	1.9234383916665383	-0.7053330527965324	-0.11396686298299084	1.9159113116777797	-0.8118197259087385
44	1.4666666666666666	-0.20749068672961518	1.840607280287055	-0.5547499369652308	-0.22333564021506197	1.8394215347523202	-0.48904990180845814																-0.19236819278819897	1.8400582930149825	-0.6178843164610005	-0.19412644028615725	1.7166967302825382	-0.599805709971804	-0.1880458531387476	1.5915954829423438	-0.5983138279172682	-0.195381297650761	1.5649313336648754	-0.6605374902940117	-0.18385546179696943	1.5725944590951784	-0.6734199383597084	-0.19035374969600846	1.5828962195722096	-0.5736172624704069	-0.2037381888225207	1.9852440174407722	-0.5796967967384786	-0.21104486786905755	2.0496636403975197	-0.6276531283350728	-1.7565991285193618	1.8922400950855707	1.1975317151217055	-0.2421056150815177	1.9124052146838977	-0.4328800896923809	-0.2697455780922329	1.967210489033254	-0.43872548802298583	-0.17683594354729112	1.9892192180906287	-0.6619721152221404	-0.15872935696480658	1.9243970628641804	-0.6745475396208445	-1.1400279791406118	1.8462402149774224	0.26138047778154855
45	1.5	-0.20911516487327753	1.8388249439960558	-0.5400367371330878	-0.2236692529569845	1.8370152530823733	-0.47988025347604407																-0.19413433437271158	1.8428360475415113	-0.603699481624658	-0.19461485698439093	1.7179345289358352	-0.5909459600540508	-0.1866261061033606	1.592684669301382	-0.599655899868342	-0.1952830104546376	1.5644848719172293	-0.6604970522898038	-0.18405408283768274	1.5737618410369998	-0.6730734075914039	-0.18747922743748885	1.5841442983257592	-0.5723680082825109	-1.6399586175302667	1.8911130448451365	1.0085448110176038	-0.21366007330554745	2.0489288126109106	-0.6173863042071671	-1.8014714523633746	1.8921690208058763	1.2747118160162891	-0.24174755933197292	1.908166852950944	-0.42290563928859026	-0.2592094595535895	1.968202184185193	-0.4325810331994407	-0.17872871024242026	1.987752122699766	-0.6478732200043118	-0.16157622667717905	1.9171032140864508	-0.6625631437453917	-1.1641594651062224	1.8604417568729896	0.2802036376733741
46	1.5333333333333334	-0.21546708804962403	1.8360917427243104	-0.5239733601619018	-0.23089044232386338	1.8345341153847352	-0.45819368948212424																-0.19895108489600796	1.8365914902889517	-0.5811060237396594	-0.19269868469611556	1.7149918055902218	-0.5756375151506862	-0.18688115829648527	1.5911477299862358	-0.5990200650738517	-0.19428528827764316	1.5639440723121814	-0.6574028115523776	-0.18401323912946269	1.5736172575874483	-0.6730168983267084	-0.18782079402805818	1.5829415236201592	-0.5717514659228381	-1.663834114495836	1.8882476218457314	1.0477593712298923	-0.21451146764675263	2.046462640640088	-0.5917366365507345	-0.23140888163739448	1.9772262627608075	-0.4546073004937228	-0.23763427193126038	1.9006356446833892	-0.4004607812859812	-0.2622208550088596	1.9194907093066342	-0.4211349721802122	-0.18597899320051714	1.9850722103946263	-0.6232886030152225	-0.16763643241035658	1.915328881084778	-0.6433081193691792	-0.1458566153262323	1.9167502873783546	-0.7432201783424629
47	1.5666666666666667	-0.2174240158547958	1.8379285356450468	-0.49565420635466695	-0.232381932377757	1.8366310114287736	-0.43845248208633775																-0.20242944860048964	1.840227737710858	-0.5644878092727	-0.20110701774748516	1.7120137453895807	-0.5658452179716326	-0.18693634901345108	1.5915587602551622	-0.5990029677769289	-0.19527871926286458	1.5644528052883848	-0.6604333149083796	-0.1841110781158498	1.5739060282668516	-0.6730419184174454	-0.1853496479248069	1.5812218719396585	-0.574240058153237	-1.7233415793155111	1.890126042743062	1.146663572923471	-0.21894407279810293	2.0446417978795712	-0.5788885347231316	-0.23522718766185835	1.9784353652850606	-0.4419540062319962	-0.24883209142444648	1.9122589505189773	-0.39500552134574896	-0.28558310719024355	1.8861325830464473	-0.36649126395145815	-0.18783525318747174	1.9816183949307962	-0.6090808260103144	-0.17786182769617737	1.905519774461426	-0.6277493615480537	-0.1491452718263447	1.9058032374783065	-0.7637116200246696
48	1.6	-0.22197728704726513	1.83280168632342	-0.48114796019897255	-0.23654341717567287	1.8314233217224798	-0.415402623953427																-0.2061043197770635	1.833231693805797	-0.5383872961146343	-0.20442085268350524	1.7116208804703001	-0.5578526963820617	-0.1889628657602659	1.5911449408855105	-0.596726428249869	-0.194698226692177	1.5629840459048425	-0.6566754804430853	-0.18354396065624332	1.5723510213408969	-0.6693431706759316	-0.1851328337835976	1.5803301056312016	-0.5741695327838896	-1.7341351194026136	1.8878377728472917	1.1650988580098263	-0.22516599403634188	2.0433281117834046	-0.572141140713822	-0.2370732692020406	1.978010792873239	-0.422286322350034	-0.2477624486814476	1.9091385034502133	-0.38210077136748666	-0.27780483302148323	1.887334505315859	-0.3580894384217801	-0.19541849344451873	1.9802556663386552	-0.5967814982050609	-0.18001989039576716	1.9032168817588095	-0.6045497501592519	-0.15588298010755153	1.8995158705811448	-0.7323312415084506
